<svg width="23" height="22" viewBox="0 0 23 22" fill="none" xmlns="http://www.w3.org/2000/svg">
<path d="M2.01465 0.992188L9.99609 7.51367L7.00391 10.5029L2.02344 11.9961L0.488281 15.5L8.00586 15.5117L7.53125 20.0088L9.54688 21.5117H13.4961L15.5 20.0088L15.0137 15.5029L22.5078 15.4941L21.0137 12.0312L15.9492 10.498L13.0156 7.51367L20.9961 0.992188L13.9824 3.50586H8.95312L2.01465 0.992188ZM21.5117 1.85938L14.6445 7.49609L16.4961 9.60547L20.9844 10.9883L22.4902 4.98242L21.5117 1.85938ZM1.51953 1.87109L0.523438 5.02344L2.01172 10.9883L6.45996 9.61133L8.35156 7.49609L1.51953 1.87109ZM9 13L10 14.5L7.47852 14.0176L9 13ZM14 13L15.5117 14.0176L13 14.5L14 13ZM0.5 16.4961L2.01172 21.0137L6.48828 20.0088L6.8916 16.5215L0.5 16.4961ZM16.1152 16.5049L16.5078 20.0088L20.9785 21.0137L22.4902 16.5137L16.1152 16.5049ZM10.4033 17H12.5791L13 17.5L13.0156 19.0098L9.99219 18.9922L10 17.5L10.4033 17Z" fill="white"/>
</svg>
